<?xml version='1.0' encoding='utf-8'?>
<svg xmlns="http://www.w3.org/2000/svg" width="202.354mm" height="202.354mm" version="1.1" style="shape-rendering:geometricPrecision; text-rendering:geometricPrecision; image-rendering:optimizeQuality; fill-rule:evenodd; clip-rule:evenodd" viewBox="0 0 20235 20235"> <defs> <style type="text/css">  .fil1 {fill:#4D4D4D} .fil3 {fill:white} .fil4 {fill:url(#id2)} .fil6 {fill:url(#id3)} .fil9 {fill:url(#id4)} .fil8 {fill:url(#id5)} .fil7 {fill:url(#id6)} .fil5 {fill:url(#id7)} .fil0 {fill:url(#id8)} .fil2 {fill:url(#id9);fill-rule:nonzero}  </style> <mask id="id0"> <linearGradient id="id1" gradientUnits="userSpaceOnUse" x1="5746.15" y1="7371.4" x2="8620.37" y2="13154.6"> <stop offset="0" style="stop-opacity:1; stop-color:white"/> </linearGradient> <rect style="fill:url(#id1)" x="5706" y="7376" width="2955" height="5773"/> </mask> <linearGradient id="id2" gradientUnits="userSpaceOnUse" x1="10126.8" y1="10116.6" x2="10126.8" y2="14784.5"> <stop offset="0" style="stop-opacity:1; stop-color:#D4CCCC"/> <stop offset="0.34902" style="stop-opacity:1; stop-color:#E8E3E3"/> <stop offset="1" style="stop-opacity:1; stop-color:#E8E1E1"/> </linearGradient> <linearGradient id="id3" gradientUnits="userSpaceOnUse" x1="10062.1" y1="6693.45" x2="10122.2" y2="11816.3"> <stop offset="0" style="stop-opacity:1; stop-color:#E6E6E6"/> <stop offset="0.478431" style="stop-opacity:1; stop-color:#EDE8E8"/> <stop offset="1" style="stop-opacity:1; stop-color:#D9D5D5"/> </linearGradient> <linearGradient id="id4" gradientUnits="userSpaceOnUse" x1="10092.2" y1="5799.77" x2="10092.2" y2="6857.6"> <stop offset="0" style="stop-opacity:1; stop-color:#333333"/> <stop offset="0.388235" style="stop-opacity:1; stop-color:#4F4E4E"/> <stop offset="1" style="stop-opacity:1; stop-color:#2E2D2D"/> </linearGradient> <linearGradient id="id5" gradientUnits="userSpaceOnUse" x1="10092.2" y1="5718.65" x2="10092.2" y2="6369.48"> <stop offset="0" style="stop-opacity:1; stop-color:#E6E3E3"/> <stop offset="1" style="stop-opacity:1; stop-color:#C4C2C2"/> </linearGradient> <linearGradient id="id6" gradientUnits="userSpaceOnUse" x1="10092.2" y1="4998.74" x2="10092.2" y2="7117.56"> <stop offset="0" style="stop-opacity:1; stop-color:white"/> <stop offset="0.458824" style="stop-opacity:1; stop-color:#DEDEDE"/> <stop offset="1" style="stop-opacity:1; stop-color:#FEFEFE"/> </linearGradient> <linearGradient id="id7" gradientUnits="userSpaceOnUse" x1="10095.2" y1="11179.9" x2="10140.1" y2="13860.3"> <stop offset="0" style="stop-opacity:1; stop-color:#7A7878"/> <stop offset="1" style="stop-opacity:1; stop-color:#D6D3D3"/> </linearGradient> <radialGradient id="id8" gradientUnits="userSpaceOnUse" gradientTransform="matrix(0.0392462 1.22769 -1.22769 0.0392462 22142 -2701)" cx="10117.7" cy="10117.7" r="10117.7" fx="10117.7" fy="10117.7"> <stop offset="0" style="stop-opacity:1; stop-color:white"/> <stop offset="1" style="stop-opacity:1; stop-color:#E6E6E6"/> </radialGradient> <linearGradient id="id9" gradientUnits="userSpaceOnUse" x1="13950" y1="9980.05" x2="16673.3" y2="7912.93"> <stop offset="0" style="stop-opacity:1; stop-color:#D9D9D9"/> <stop offset="1" style="stop-opacity:1; stop-color:#E6E6E6"/> </linearGradient> </defs> <g id="Layer_x0020_1"> <metadata id="CorelCorpID_0Corel-Layer"/> <g id="_818151360"> <polygon class="fil0" points="0,0 20235,0 20235,20235 0,20235 "/> <g> <path class="fil1" d="M10121 11252c3590,0 6499,892 6499,1992 0,1101 -2909,1993 -6499,1993 -3589,0 -6499,-892 -6499,-1993 0,-1100 2910,-1992 6499,-1992z"/> <path class="fil2" d="M14535 7506l777 0c332,0 634,128 853,334 219,206 355,490 355,803l0 607c0,313 -136,597 -355,803 -219,206 -521,334 -853,334l-777 0c-119,0 -227,-46 -305,-119 -78,-74 -127,-175 -127,-287l0 -2069c0,-112 49,-213 127,-287 78,-73 186,-119 305,-119zm777 547l-628 0 0 1787 628 0c172,0 329,-66 443,-173 113,-107 184,-255 184,-417l0 -607c0,-162 -71,-310 -184,-417 -114,-107 -271,-173 -443,-173z"/> <path class="fil3" d="M10118 10117c3820,0 6916,1100 6916,2457 0,1357 -3096,2457 -6916,2457 -3820,0 -6917,-1100 -6917,-2457 0,-1357 3097,-2457 6917,-2457z"/> <path class="fil4" d="M16970 12709c-517,1176 -3379,2075 -6833,2075 -3651,0 -6641,-1004 -6898,-2278 -25,-119 -17,-157 28,-271 464,-1197 3354,-2118 6851,-2118 3545,0 6466,947 6869,2168 58,178 57,254 -17,424z"/> <path class="fil5" d="M10118 11245c2166,0 3922,571 3922,1275 0,704 -1756,1275 -3922,1275 -2166,0 -3922,-571 -3922,-1275 0,-704 1756,-1275 3922,-1275z"/> <path class="fil1" d="M10118 11891c1233,0 2233,376 2233,840 0,464 -1000,840 -2233,840 -1234,0 -2234,-376 -2234,-840 0,-464 1000,-840 2234,-840z"/> <path class="fil6" d="M10092 13463c-3827,0 -5275,-4203 -5275,-7410 0,-556 2362,-1006 5275,-1006 2914,0 5275,450 5275,1006 0,3207 -1448,7410 -5275,7410z"/> <path class="fil7" d="M15367 6065c-214,589 -2494,1053 -5275,1053 -2781,0 -5061,-464 -5274,-1053 -1,-20 -1,-41 -1,-61 0,-555 2362,-1005 5275,-1005 2914,0 5275,450 5275,1005 0,20 0,41 0,61z"/> <path class="fil8" d="M15070 6049c-202,453 -2353,809 -4978,809 -2624,0 -4776,-356 -4978,-809 0,-15 0,-31 0,-46 0,-427 2229,-772 4978,-772 2749,0 4978,345 4978,772 0,15 0,31 0,46z"/> <path class="fil9" d="M10092 5800c1855,0 3480,240 4384,600 -848,273 -2493,458 -4384,458 -1891,0 -3536,-185 -4383,-458 903,-360 2528,-600 4383,-600z"/> <path class="fil1" d="M10098 8646c-2789,0 -5058,-326 -5126,-731 -1,8 -1,16 -1,24 0,7 0,13 1,19 1,9 3,18 4,26 126,511 2371,918 5122,918 1738,0 3274,-162 4202,-411 219,-59 405,-122 551,-190 169,-78 285,-161 339,-248 24,-37 36,-75 36,-114 0,-8 -1,-16 -2,-24 -8,47 -45,93 -110,138 -63,43 -152,85 -263,125 -146,53 -332,102 -551,148 -928,194 -2464,320 -4202,320z"/> <path class="fil3" style="mask:url(#id0)" d="M7084 7714c-216,1761 495,3567 1567,5426 -1881,-1467 -2775,-3427 -2935,-5754 329,137 517,208 1368,328z"/> </g> </g> </g> </svg>