<?xml version="1.0" encoding="UTF-8"?>
<svg viewBox="0 0 744.09448819 1052.3622047" xmlns="http://www.w3.org/2000/svg">
 <defs>
  <linearGradient id="a" x1="100.44" x2="247.77" y1="219.73" y2="94.963" gradientTransform="matrix(-.88377 -.46793 -.46793 .88377 549.88 199.86)" gradientUnits="userSpaceOnUse">
   <stop stop-color="#cfcbd2" offset="0"/>
   <stop stop-color="#cfcbd2" stop-opacity="0" offset="1"/>
  </linearGradient>
 </defs>
 <g transform="translate(-36.102 -56.614)">
  <path d="m218.7 204.52c76.731 32.595 135.15 53.487 162.95 58.281 9.8511 1.6983 23.943 2.2852 28.943 1.2055 3.7525-0.81025 6.2659-3.6034 6.0212-6.6914-0.17321-2.1859-17.543-14.804-35.057-25.466-16.154-9.8346-97.673-52.436-146.94-76.79-20.546-10.157-21.475-10.706-23.437-13.856-1.8966-3.0457-3.9521-4.3415-28.739-18.118-41.301-22.955-78.253-42.444-85.248-44.962-9.2363-3.3246-15.362-4.1038-21.033-2.6754-9.0558 2.2812-16.949 10.344-17.972 18.358-0.43771 3.4305 1.8086 11.692 4.0824 15.014 2.4382 3.5623 4.6605 4.3694 11.422 4.1478l6.1045-0.20001 15.081 9.3771c18.814 11.698 33.637 19.402 49.166 25.553 6.6271 2.625 14.65 5.8504 17.828 7.1675l5.7784 2.3948 1.1247 5.5644c0.77365 3.8278 1.9825 6.364 3.8732 8.1261 2.2299 2.0783 2.6968 3.3789 2.4742 6.8922-0.30486 4.8109 2.0597 8.5901 6.8174 10.896 1.5511 0.75172 18.092 7.854 36.757 15.783z" fill="#fff"/>
  <path d="m220 208.49c80.419 34.145 141.64 56.031 170.78 61.053 10.325 1.7791 25.093 2.3939 30.334 1.2628 3.9329-0.84878 6.567-3.7748 6.3106-7.0097-0.18154-2.2899-18.386-15.508-36.742-26.677-16.93-10.302-102.37-54.93-154-80.442-21.534-10.64-22.507-11.215-24.563-14.515-1.9878-3.1905-4.142-4.548-30.12-18.979-43.286-24.047-82.014-44.463-89.345-47.101-9.6802-3.4827-16.101-4.299-22.044-2.8026-9.4911 2.3896-17.764 10.836-18.836 19.231-0.45875 3.5936 1.8955 12.248 4.2786 15.728 2.5554 3.7317 4.8845 4.5772 11.971 4.3451l6.3979-0.20952 15.806 9.823c19.718 12.254 35.254 20.324 51.529 26.768 6.9456 2.7498 15.354 6.1286 18.684 7.5084l6.0561 2.5087 1.1787 5.829c0.81085 4.0098 2.0778 6.6666 4.0594 8.5126 2.3371 2.1771 2.8264 3.5396 2.5931 7.22-0.31951 5.0397 2.1587 8.9986 7.145 11.414 1.6256 0.78746 18.961 8.2275 38.523 16.533zm-37.602-27.204c-0.63713-0.94655-0.92847-3.227-0.64741-5.0677 0.43574-2.8538 0.90242-3.4852 3.1684-4.2868 2.0887-0.73892 12.349-10.068 25.345-23.044 0.95753-0.95607 16.433 6.183 21.82 10.066l3.2759 2.3612-3.6377-1.0823c-2.0007-0.59525-4.6808-0.54864-5.9559 0.10358-2.0537 1.0506-2.2936 0.98293-2.1028-0.59277 0.1312-1.0832-0.76306-2.2967-2.2872-3.1037-2.2854-1.2101-2.7351-1.01-5.1826 2.3062-3.8897 5.2704-5.1202 10.815-2.7787 12.521 1.3362 0.97366 2.284 0.91044 3.3233-0.22165 1.3914-1.5155 1.5263-1.3938 3.129 2.8218 1.5447 4.0629 2.0885 4.5876 6.9918 6.7464l5.3168 2.3409-3.4498 0.20528c-2.5696 0.1529-3.8027 0.8718-4.8329 2.8174-0.76068 1.4367-1.9109 2.6474-2.556 2.6904-2.1202 0.14148-2.0936 1.7203 0.04803 2.8542 1.1771 0.62324 2.2519 2.3123 2.4433 3.8396 0.28007 2.2353 0.61263 2.5823 1.845 1.9249 1.2708-0.6779 1.6133-0.44444 2.2143 1.5092 0.39104 1.2711 0.49843 2.3577 0.23866 2.4145-0.41297 0.0904-36.843-14.871-42.46-17.438-1.1604-0.53029-2.6311-1.7386-3.2682-2.6851zm137.41 56.142c0.7374 0.07654 1.7316 0.60296 2.2094 1.1698s-0.12555 0.50426-1.3407-0.13915-1.6061-1.1072-0.86869-1.0307zm7.603 2.8705c0.77314 0.0825 1.5188 0.51748 1.657 0.96664s-0.4944 0.38166-1.4057-0.14999c-1.0071-0.58752-1.1056-0.90781-0.25124-0.81665zm4.8218 1.4451c0.7374 0.07653 1.7316 0.60296 2.2094 1.1698s-0.12555 0.50426-1.3407-0.13915-1.6061-1.1072-0.86869-1.0307z" fill="url(#a)"/>
  <path d="m191.06 194.77c4.8392 2.0266 19.374 8.2343 32.299 13.795 53.895 23.187 110.39 44.359 146.35 54.841 17.099 4.9854 40.001 7.9316 49.449 6.3617 2.992-0.49714 4.4917-1.3846 5.4735-3.2389 0.7438-1.4048 1.1388-2.9184 0.87788-3.3635-2.1036-3.5879-32.981-24.313-36.067-24.208-1.4161 0.04806-1.4313 0.34191-0.08398 1.6264 1.6114 1.5363 1.5351 1.6234-3.8023 4.3426-4.1756 2.1273-11.101 7.6419-12.418 9.8874-0.06959 0.11873 0.56302 0.59646 1.4058 1.0616 5.5127 3.0426-13.774-2.1262-36.416-9.7594-21.587-7.2775-68.957-25.836-106.83-41.855-52.212-22.082-49.18-20.679-50.086-23.175-0.45967-1.266-0.56606-3.8904-0.23643-5.832 0.53134-3.1296 0.90341-3.5912 3.2785-4.0678 1.8019-0.36155 6.4585-4.2797 14.221-11.965 15.688-15.534 14.861-14.217 11.496-18.31-2.0105-2.4456-11.966-8.031-60.848-34.14-52.5-28.041-59.049-31.343-64.395-32.466-11.553-2.4273-20.149 0.2389-26.808 8.3152-4.9269 5.9756-5.9871 11.402-3.688 18.875 2.5019 8.1327 5.0369 10.01 13.157 9.7443l6.482-0.21226 12.068 7.4003c20.621 12.645 47.564 26.429 63.851 32.667 8.0648 3.0888 15.581 6.4421 16.703 7.4517 1.1848 1.0664 2.233 3.8109 2.5012 6.5491 0.25397 2.5924 1.0208 5.233 1.7042 5.868s2.1515 1.9268 3.2626 2.8708c1.4079 1.1961 1.9343 3.0708 1.7368 6.1854-0.43871 6.9199 1.8008 9.0697 15.366 14.751zm67.809 1.1895c5.7287 0.90751 8.728-0.50577 11.31-5.329 2.0128-3.7608 0.51217-9.0125-3.1256-10.939-1.4516-0.7686-3.0957-1.1299-3.6534-0.80288-1.515 0.88823-4.1736-0.84451-4.6268-3.0155-0.55368-2.6527-3.7702-4.1145-7.5452-3.4292-1.7506 0.31778-3.6376 0.33703-4.1933 0.04279s-2.329 0.54901-3.9406 1.8739c-8.5385 7.0195 0.32196 19.151 15.775 21.599zm-39.722-31.166c2.2328-4.7039 2.5932-6.2648 1.5716-6.8057s-2.11 0.6345-4.7455 5.1252c-3.1797 5.4178-3.29 5.8958-1.5716 6.8057s2.0518 0.54991 4.7455-5.1252zm18.891 9.6371c2.2527-4.2546 2.067-7.173-0.36566-5.7468-0.92653 0.54321-2.7514-0.19068-6.4255-2.5841-2.8223-1.8385-5.4921-3.1313-5.9329-2.8729-1.3956 0.81821-1.8516 6.9652-0.64923 8.7515 0.63512 0.94356 3.3976 2.8377 6.1388 4.2091l4.984 2.4936 2.2505-4.2504zm58.258 31.957c10.567 4.9216 12.004 5.3605 14.318 4.3736 2.8578-1.219 3.4053-2.8287 1.8485-5.4351-0.98141-1.6431-29.377-15.637-34.92-17.209-2.6369-0.74797-5.0852 1.4741-5.0712 4.6027 0.01147 2.5777 0.00358 2.5732 23.825 13.668zm-58.905-40.888c-0.47778-0.56686-1.472-1.0933-2.2094-1.1698s-0.34649 0.38727 0.86869 1.0307 1.8185 0.70602 1.3407 0.13915zm74.861 31.716c-0.47778-0.56687-1.472-1.0933-2.2094-1.1698s-0.34649 0.38728 0.86869 1.0307 1.8185 0.70602 1.3407 0.13915zm-6.6145-3.5648c-1.2358-0.91442-3.2272-1.9618-4.4252-2.3276s-0.18691 0.38241 2.247 1.6626 3.4141 1.5794 2.1783 0.665z" fill="#a5a1a4"/>
  <path d="m217.65 204.39c71.325 30.198 131.64 52.579 160.24 59.457 16.987 4.0857 41.134 6.0611 43.735 3.578 1.6326-1.5583-1.528-2.2964-10.789-2.5197-17.704-0.42679-35.581-4.6837-71.391-17-42.58-14.645-76.777-28.243-138.61-55.117-22.715-9.873-22.631-9.8029-21.088-17.579 0.69658-3.5111 1.092-3.9982 4.2972-5.2946 2.239-0.90558 7.7917-5.7199 15.183-13.164 10.637-10.713 11.574-11.897 10.756-13.58-1.1107-2.2849-35.119-21.595-83.153-47.216-35.493-18.931-40.9-21.253-49.785-21.374-15.583-0.21184-26.609 15.6-20.3 29.111 2.3991 5.1372 4.249 6.1309 10.852 5.8289 6.3569-0.29065 10.263 1.5772 32.054 15.327 16.283 10.274 25.943 15.014 47.156 23.135 6.9855 2.6744 14.842 5.9697 17.459 7.3228 4.5864 2.3716 4.8099 2.6811 6.2016 8.5893 0.97322 4.1314 2.2958 6.8176 4.0576 8.2413 1.9903 1.6084 2.5984 3.1295 2.549 6.3768-0.0883 5.8078 1.6038 8.7186 6.4769 11.142 2.2304 1.109 17.573 7.7397 34.096 14.735zm39.47-10.592c3.6833 0.80223 5.0795-1.1123 1.8029-2.4723-1.4604-0.60617-3.3895-1.8707-4.2868-2.81s-2.2954-1.6635-3.1068-1.6094-2.0968-0.17147-2.8564-0.50135c-5.3278-2.3139-5.201-2.3168-4.0775 0.09288 1.0638 2.2815 7.9733 6.3088 12.525 7.3001zm-10.792-10.447c5.3022-0.4307 6.0255-2.884 1.657-5.6207-2.929-1.8349-3.7997-1.9618-5.048-0.73539-1.5102 1.4836-2.0754 5.8664-0.82204 6.3743 0.36627 0.14844 2.2622 0.14022 4.2131-0.01824zm19.163 9.6902c1.1446-0.472 2.2001-1.975 2.8464-4.0532 1.3-4.1803-1.453-8.187-5.4361-7.9118-2.1808 0.15064-2.831-0.33967-4.9929-3.7655-1.9984-3.1666-2.8515-3.8623-4.3523-3.549-1.0267 0.2143-1.9412 0.83645-2.0323 1.3825-0.2626 1.5751 5.3096 7.026 7.811 7.6409 1.6302 0.40074 2.0677 0.94569 1.5476 1.928-0.39876 0.75311-1.2528 1.4045-1.898 1.4476-2.4384 0.1627-2.1168 1.9425 0.4657 2.5773 1.7434 0.42857 2.8887 1.3823 3.4212 2.8488 0.7137 1.9657 0.99764 2.1233 2.6197 1.4544zm-31.815-18.206c0.49562-0.15247 1.3047-1.0395 1.798-1.9711 1.2136-2.292-1.3531-2.6058-2.9964-0.36636-1.2572 1.7133-0.64628 2.905 1.1984 2.3375zm-4.5574-2.7902c0.25736-0.48607-0.12861-1.1996-0.85772-1.5857s-1.5362-0.3042-1.7936 0.18187 0.12861 1.1996 0.85772 1.5857 1.5362 0.3042 1.7936-0.18187zm53.134 24.705c0.46814-0.27447 2.0706 0.42382 3.5611 1.5518 1.6956 1.2832 3.1737 1.7788 3.9492 1.3242 2.1748-1.2751-0.16265-3.4991-7.149-6.8021-5.8905-2.7849-6.9018-2.9928-7.6533-1.5734-0.69077 1.3046-0.12685 2.0768 2.7875 3.8171 2.0094 1.1998 4.0365 1.957 4.5046 1.6825zm-50.421-26.645c0.56687-0.33235 0.41066-0.93255-0.34713-1.3338-1.5524-0.82193-2.0617-0.41264-1.237 0.99399 0.30441 0.51924 1.0173 0.67213 1.5842 0.33979zm70.308 35.916c3.5983 1.352 6.7966 2.3799 7.1074 2.2843 1.7894-0.5505-0.23087-2.5618-4.7993-4.7779-2.8744-1.3944-6.542-3.1757-8.1502-3.9585-2.291-1.1152-3.1265-1.0406-3.8598 0.3443-1.0481 1.9794-0.69616 2.201 9.7018 6.1078z" fill="#2d292d"/>
 </g>
</svg>
